<svg width="28" height="28" viewBox="0 0 28 28" fill="none" xmlns="http://www.w3.org/2000/svg">
<path d="M0 12.7371C0 9.35901 1.34188 6.11928 3.73043 3.73061C6.11898 1.34194 9.35855 0 12.7365 0C16.1144 0 19.354 1.34194 21.7425 3.73061C24.1311 6.11928 25.473 9.35901 25.473 12.7371C25.473 16.1152 24.1311 19.3549 21.7425 21.7436C19.354 24.1323 16.1144 25.4742 12.7365 25.4742C9.35855 25.4742 6.11898 24.1323 3.73043 21.7436C1.34188 19.3549 0 16.1152 0 12.7371ZM12.7365 2.06548C9.90633 2.06548 7.19209 3.1898 5.19087 5.19112C3.18965 7.19244 2.06537 9.90681 2.06537 12.7371C2.06537 15.5674 3.18965 18.2818 5.19087 20.2831C7.19209 22.2844 9.90633 23.4087 12.7365 23.4087C15.5666 23.4087 18.2809 22.2844 20.2821 20.2831C22.2833 18.2818 23.4076 15.5674 23.4076 12.7371C23.4076 9.90681 22.2833 7.19244 20.2821 5.19112C18.2809 3.1898 15.5666 2.06548 12.7365 2.06548Z" fill="#B1B4BA"/>
<path d="M8.11142 7.42332C8.71827 6.81525 9.43923 6.33303 10.2329 6.00434C11.0266 5.67564 11.8774 5.50695 12.7365 5.50794C14.5416 5.50794 16.1788 6.24049 17.3615 7.42332C17.544 7.61909 17.6433 7.87803 17.6385 8.14558C17.6338 8.41313 17.5254 8.6684 17.3362 8.85762C17.147 9.04683 16.8918 9.15522 16.6242 9.15994C16.3567 9.16466 16.0978 9.06535 15.902 8.88293C15.4868 8.46671 14.9933 8.13673 14.45 7.91199C13.9068 7.68725 13.3244 7.57218 12.7365 7.57341C11.5 7.57341 10.382 8.07326 9.57232 8.8843C9.37656 9.06672 9.11764 9.16604 8.8501 9.16132C8.58256 9.1566 8.3273 9.04821 8.1381 8.859C7.94889 8.66978 7.84051 8.41451 7.83579 8.14696C7.83107 7.87941 7.93038 7.62047 8.11279 7.4247L8.11142 7.42332ZM20.4197 20.4207C20.5156 20.3247 20.6294 20.2486 20.7548 20.1966C20.8801 20.1447 21.0145 20.118 21.1501 20.118C21.2858 20.118 21.4201 20.1447 21.5455 20.1966C21.6708 20.2486 21.7847 20.3247 21.8806 20.4207L27.7228 26.2632C27.9053 26.459 28.0046 26.7179 27.9998 26.9855C27.9951 27.253 27.8867 27.5083 27.6975 27.6975C27.5083 27.8867 27.2531 27.9951 26.9855 27.9998C26.718 28.0046 26.4591 27.9052 26.2633 27.7228L20.421 21.8817C20.2277 21.688 20.119 21.4255 20.119 21.1519C20.119 20.8782 20.2277 20.6157 20.421 20.4221L20.4197 20.4207Z" fill="#B1B4BA"/>
</svg>
