<svg width="54" height="26" viewBox="0 0 54 26" fill="none" xmlns="http://www.w3.org/2000/svg">
<path d="M1.81562 25.942H52.1844C52.6618 25.942 53.1196 25.7524 53.4572 25.4148C53.7948 25.0772 53.9844 24.6194 53.9844 24.142C53.9844 23.6646 53.7948 23.2068 53.4572 22.8692C53.1196 22.5316 52.6618 22.342 52.1844 22.342H3.61562V3.6574H52.1844C52.6618 3.6574 53.1196 3.46776 53.4572 3.13019C53.7948 2.79263 53.9844 2.33479 53.9844 1.8574C53.9844 1.38001 53.7948 0.922177 53.4572 0.584611C53.1196 0.247046 52.6618 0.0574036 52.1844 0.0574036H1.81562C1.33824 0.0574036 0.880397 0.247046 0.542831 0.584611C0.205266 0.922177 0.015625 1.38001 0.015625 1.8574V24.142C0.015625 24.6194 0.205266 25.0772 0.542831 25.4148C0.880397 25.7524 1.33824 25.942 1.81562 25.942Z" fill="white"/>
<path d="M11.175 14.8H42.825C43.0614 14.8 43.2955 14.7534 43.5139 14.663C43.7322 14.5725 43.9307 14.4399 44.0978 14.2728C44.265 14.1056 44.3975 13.9072 44.488 13.6888C44.5785 13.4704 44.625 13.2364 44.625 13C44.625 12.7636 44.5785 12.5296 44.488 12.3112C44.3975 12.0928 44.265 11.8944 44.0978 11.7272C43.9307 11.5601 43.7322 11.4275 43.5139 11.337C43.2955 11.2466 43.0614 11.2 42.825 11.2H11.1756C10.9392 11.2 10.7052 11.2466 10.4868 11.337C10.2684 11.4275 10.07 11.5601 9.90282 11.7272C9.73568 11.8944 9.6031 12.0928 9.51264 12.3112C9.42218 12.5296 9.37562 12.7636 9.37562 13C9.37562 13.2364 9.42218 13.4704 9.51264 13.6888C9.6031 13.9072 9.73568 14.1056 9.90282 14.2728C10.07 14.4399 10.2684 14.5725 10.4868 14.663C10.7052 14.7534 10.9386 14.8 11.175 14.8Z" fill="white"/>
</svg>
