<svg width="35" height="36" viewBox="0 0 35 36" fill="none" xmlns="http://www.w3.org/2000/svg">
<path d="M29.4945 0H9.26636C6.2843 0 3.85815 2.42615 3.85815 5.4082V6.62657H2.42041C1.13943 6.62657 0.097168 7.66883 0.097168 8.94981C0.097168 10.2309 1.13943 11.2731 2.42041 11.2731H3.85815V15.4248H2.42041C1.13943 15.4248 0.097168 16.4671 0.097168 17.748C0.097168 19.029 1.13943 20.0713 2.42041 20.0713H3.85815V24.223H2.42041C1.13943 24.223 0.097168 25.2652 0.097168 26.5462C0.097168 27.8273 1.13943 28.8695 2.42041 28.8695H3.85815V30.0879C3.85815 33.0699 6.2843 35.4961 9.26636 35.4961H29.4945C32.4765 35.4961 34.9027 33.0699 34.9027 30.0879V5.4082C34.9027 2.42615 32.4765 0 29.4945 0ZM1.31592 8.94981C1.31592 8.34082 1.81142 7.84532 2.42041 7.84532H6.51465C7.12364 7.84532 7.61914 8.34082 7.61914 8.94989C7.61914 9.55889 7.12364 10.0544 6.51465 10.0544H2.42041C1.81142 10.0544 1.31592 9.55888 1.31592 8.94981ZM1.31592 17.748C1.31592 17.1391 1.81142 16.6436 2.42041 16.6436H6.51465C7.12364 16.6436 7.61914 17.1391 7.61914 17.748C7.61914 18.357 7.12364 18.8525 6.51465 18.8525H2.42041C1.81142 18.8525 1.31592 18.357 1.31592 17.748ZM1.31592 26.5462C1.31592 25.9372 1.81142 25.4417 2.42041 25.4417H6.51465C7.12364 25.4417 7.61914 25.9372 7.61914 26.5463C7.61914 27.1553 7.12364 27.6508 6.51465 27.6508H2.42041C1.81142 27.6508 1.31592 27.1553 1.31592 26.5462ZM33.6839 30.0879C33.6839 32.398 31.8045 34.2773 29.4945 34.2773H9.26636C6.95629 34.2773 5.0769 32.398 5.0769 30.0879V28.8695H6.51465C7.79563 28.8695 8.83789 27.8273 8.83789 26.5463C8.83789 25.2652 7.79563 24.223 6.51465 24.223H5.0769V20.0713H6.51465C7.79563 20.0713 8.83789 19.029 8.83789 17.748C8.83789 16.4671 7.79563 15.4248 6.51465 15.4248H5.0769V11.2731H6.51465C7.79563 11.2731 8.83789 10.2309 8.83789 8.94989C8.83789 7.66883 7.79563 6.62657 6.51465 6.62657H5.0769V5.4082C5.0769 3.09814 6.95629 1.21875 9.26636 1.21875H29.4945C31.8045 1.21875 33.6839 3.09814 33.6839 5.4082V30.0879ZM22.0884 7.76481H20.2533C16.4318 7.76481 14.3965 13.5626 14.3965 17.748C14.3965 21.9335 16.4318 27.7314 20.2533 27.7314H22.0884C23.3433 27.7314 24.3642 26.7104 24.3642 25.4555V22.8673C24.3642 21.6123 23.3433 20.5914 22.0884 20.5914H21.143C20.4501 19.8046 20.0714 18.8042 20.0714 17.748C20.0714 16.6918 20.4502 15.6915 21.143 14.9047H22.0884C23.3433 14.9047 24.3642 13.8838 24.3642 12.6289V10.0407C24.3642 8.78574 23.3433 7.76481 22.0884 7.76481ZM23.1455 12.6289C23.1455 13.2117 22.6712 13.686 22.0884 13.686H20.8782C20.7975 13.6859 20.7175 13.702 20.6431 13.7331C20.5686 13.7643 20.501 13.81 20.4444 13.8675C19.4179 14.9084 18.8527 16.2865 18.8527 17.748C18.8527 19.2096 19.4179 20.5877 20.4444 21.6286C20.501 21.6861 20.5686 21.7318 20.6431 21.7629C20.7176 21.7941 20.7975 21.8101 20.8782 21.8101H22.0884C22.6712 21.8101 23.1455 22.2844 23.1455 22.8673V25.4555C23.1455 26.0384 22.6712 26.5126 22.0884 26.5126H20.2533C17.3797 26.5126 15.6153 21.4078 15.6153 17.748C15.6153 14.0883 17.3797 8.98356 20.2533 8.98356H22.0884C22.6712 8.98356 23.1455 9.4578 23.1455 10.0406V12.6289Z" fill="#FFE815"/>
</svg>
