<svg width="52" height="27" viewBox="0 0 52 27" fill="none" xmlns="http://www.w3.org/2000/svg">
<path d="M42.3872 8.76847L1.19815 9.73146C-0.396492 9.76565 -0.40227 12.2102 1.19815 12.176L33.3278 11.4238L42.3872 11.2244C43.9818 11.1731 43.9876 8.72858 42.3872 8.76847ZM51.3888 8.6488C45.7152 6.01624 40.1416 3.18804 34.6682 0.164196C33.2816 -0.60506 32.0278 1.53746 33.4202 2.27822C38.3775 5.02096 43.4156 7.59654 48.5347 10.005C43.3688 14.5485 38.7193 19.6327 34.6682 25.1679C34.5052 25.4489 34.4605 25.7819 34.5436 26.0951C34.6268 26.4084 34.8313 26.677 35.1131 26.8431C35.3982 26.9993 35.7335 27.0408 36.0489 26.959C36.3643 26.8773 36.6355 26.6786 36.806 26.4044C41.1001 20.5665 46.0805 15.251 51.643 10.5691C51.7755 10.4359 51.8755 10.2748 51.9355 10.0979C51.9955 9.92098 52.014 9.73294 51.9895 9.54797C51.965 9.363 51.8982 9.18594 51.7942 9.03017C51.6901 8.8744 51.5515 8.74399 51.3888 8.6488Z" fill="#0A0E1A"/>
</svg>
