<svg width="18" height="17" viewBox="0 0 18 17" fill="none" xmlns="http://www.w3.org/2000/svg">
<path d="M16.6562 1.15649C16.9062 1.31274 17.0312 1.59399 16.9375 1.87524L14.9375 15.3752C14.9062 15.594 14.7812 15.8127 14.5625 15.9065C14.4688 15.969 14.3438 16.0315 14.2188 16.0315C14.0938 16.0315 14 16.0002 13.9062 15.969L10.8438 14.6565L7.375 16.9065C7.25 16.969 7.09375 17.0002 6.96875 17.0002C6.875 17.0002 6.75 16.969 6.625 16.9377C6.375 16.7815 6.25 16.5315 6.25 16.2502V12.719L1.4375 10.719C1.1875 10.594 1 10.344 1 10.0627C0.96875 9.78149 1.125 9.50024 1.375 9.37524L15.875 1.12524C16.125 0.968994 16.4375 1.00024 16.6562 1.15649ZM12.5312 4.75024L3.4375 9.90649L6.6875 11.2815L12.5312 4.75024ZM7.71875 14.8752L9.15625 13.969L7.71875 13.344V14.8752ZM13.625 14.1877L15.125 4.09399L8.125 11.8752L13.625 14.1877Z" fill="white"/>
</svg>
